<svg width="32" height="19" viewBox="0 0 32 19" xmlns="http://www.w3.org/2000/svg"><title>20018692-D622-46BF-9A60-60941319C015</title><g fill="none" fill-rule="evenodd"><ellipse fill="#FFF" cx="23.685" cy="10.122" rx="7.5" ry="7.5"/><g fill="#DF2448"><path d="M15.484 10.122a8.198 8.198 0 0 1 4.47-7.303C17.942 2.012 17.342.24 17.4.176c-2.515 2.833-.612 4.52-.723 4.52-.43 0-5.58-1.585-8.392 1.508-3.252 3.571-5.18 4.555-7.718 4.532.103 0 3.367 2.156 5.856.753 3.85-2.183 5.907-1.26 5.242 0-1.112 2.11-4.224 1.856-4.9 1.507-.527 1.104-.176 2.381.684 3.014 2.6 1.905 7.188-2.22 9-.753 1.377 1.118-2.785 3.02-2.813 3.015 2.573.452 4.876.159 6.829-.605a8.204 8.204 0 0 1-4.98-7.545z"/><path d="M2.24 8.465c.489 0 1.28-.293 2.013-.753.891-.523 1.744-.666 2.012-.755-.303-.546-.829-.752-1.48-.752-.478 0-1.31.46-2.012.752-.936.383-1.865-.086-2.62 0 .528.874 1.177 1.508 2.087 1.508zM16.028 11.598c.069-.028.133-.052.198-.077l-.032-.18c-.097.156-.156.252-.166.257z"/><path d="M23.685 1.92c-1.344 0-2.611.326-3.73.899a8.204 8.204 0 0 0 .51 14.848 8.201 8.201 0 0 0 11.422-7.545 8.2 8.2 0 0 0-8.202-8.201zm0 15.32a7.095 7.095 0 0 1-1.813-.235 7.138 7.138 0 0 1-5.304-6.883c0-3.316 2.28-6.11 5.356-6.896a7.1 7.1 0 0 1 1.76-.22c3.927 0 7.12 3.193 7.12 7.116 0 3.925-3.194 7.118-7.12 7.118z"/><path d="M18.714 9.293c.043-.36.116-.686.21-.972.097-.285.245-.535.447-.744.2-.211.465-.372.794-.486.33-.11.746-.167 1.246-.167.489 0 .88.052 1.175.156.3.102.526.237.682.408.158.171.255.37.294.602.039.231.042.476.016.74-.057.475-.185.872-.393 1.193a3.962 3.962 0 0 1-.766.88l-1.268 1.056a7.447 7.447 0 0 0-.312.265.85.85 0 0 0-.237.306h2.55l-.157 1.381h-4.877c.052-.485.186-.949.394-1.39.208-.441.55-.869 1.023-1.283l1.44-1.245c.214-.176.37-.346.465-.508.099-.16.162-.372.191-.636.038-.296.018-.5-.058-.613a.403.403 0 0 0-.348-.167.63.63 0 0 0-.206.035.478.478 0 0 0-.192.132.946.946 0 0 0-.158.282c-.045.123-.08.283-.1.48l-.035.295h-1.82zM23.489 11.228l2.833-4.165h2.115l-.49 4.223h.65l-.154 1.323h-.651l-.146 1.302h-1.82l.145-1.302h-2.64l.158-1.38zm2.7.058l.268-2.328h-.02l-1.485 2.328h1.236z"/></g></g></svg>