<svg width="24" height="24" viewBox="0 0 24 24" xmlns="http://www.w3.org/2000/svg"><title>BE1FEC5A-C629-4E79-B32F-F57117937209</title><g fill="none" fill-rule="evenodd"><g fill="#FF8F00"><path d="M5.797 5.206l-.739-.738a1.737 1.737 0 0 1-.516-1.219c0-.443.184-.886.516-1.218a1.737 1.737 0 0 1 1.219-.517c.443 0 .886.184 1.218.517l3.213 3.212h1.846L8.418 1.071a3.076 3.076 0 0 0-4.32 0 3.041 3.041 0 0 0-.886 2.178c0 .739.259 1.44.739 1.994h1.846v-.037z"/><path d="M13.292 5.206l3.213-3.212a1.737 1.737 0 0 1 1.218-.517c.443 0 .886.185 1.219.517.332.332.516.775.516 1.218 0 .443-.184.886-.516 1.219l-.739.738h1.846a3.047 3.047 0 0 0-.148-4.135c-1.181-1.182-3.101-1.182-4.32 0l-4.135 4.172h1.846z"/></g><path d="M23.225 4.91H.775a.583.583 0 0 0-.59.592V9.23c0 .332.258.59.59.59h22.413c.332 0 .59-.258.59-.59V5.538a.563.563 0 0 0-.553-.627z" fill="#F44336"/><path d="M1.625 9.858v13.219a.74.74 0 0 0 .738.738H21.6a.74.74 0 0 0 .738-.738V9.858H1.625z" fill="#D32F2F"/><path fill="#AC3928" d="M1.625 9.858h20.714v.665H1.625z"/><path fill="#FF8F00" d="M10.911 4.911h2.273v18.905h-2.273z"/><path d="M21.6 23.298H2.4a.74.74 0 0 1-.738-.738v.48a.74.74 0 0 0 .738.738h19.237a.74.74 0 0 0 .738-.738v-.48c0 .406-.369.738-.775.738z" fill="#D45947" opacity=".3"/></g></svg>